 <!DOCTYPE svg PUBLIC "-//W3C//DTD SVG 1.1//EN" "http://www.w3.org/Graphics/SVG/1.1/DTD/svg11.dtd">
<svg id="aae95045-addd-4daa-baf7-bfd3e3887dae" data-name="Layer 1" xmlns="http://www.w3.org/2000/svg" width="865.76" height="682.89" viewBox="0 0 865.76 682.89">
<defs>
<style xmlns="http://www.w3.org/1999/xhtml">*, ::after, ::before { box-sizing: border-box; }
img, svg { vertical-align: middle; }
</style>
<style xmlns="http://www.w3.org/1999/xhtml">*, body, html { -webkit-font-smoothing: antialiased; }
img, svg { max-width: 100%; }
</style>
</defs>
<rect x="352.35" y="140.22" width="422.82" height="279.22" fill="#ccc"/>
<path d="M328.17,541.63,277,399.34,178.16,539.73l-1.17-.68,64.4-141.85h35.48l.55-.78.28.78h37.52ZM242.26,398.56,181.21,533l94.71-134.48Zm35.93,0,47.68,132.66L314,398.56Z" fill="#ccc"/>
<path d="M310.07,263.75s-3.47,2.71.16,9V294l-11.93.72-7-15.47-7-9.66s13.71-2.69,14-17.08l1-.47S300.74,261.51,310.07,263.75Z" fill="#f9b499"/>
<circle cx="181.17" cy="528.95" r="10.38" fill="#ccc"/>
<path d="M124.31,520.28l-1.25-.53c.06-.12,5.69-12.85,27.49-8.12l32.2,4.86.35,3.31-1.35.14-.24-2.27L150.3,513C129.62,508.48,124.52,519.8,124.31,520.28Z" fill="#ccc"/>
<polygon points="110.85 504.8 113.89 491.43 129.09 491.43 131.52 504.8 110.85 504.8" fill="#ccc"/>
<rect x="115.9" y="458.42" width="11.45" height="33.01" fill="#ccc"/>
<rect x="115.9" y="458.42" width="11.45" height="33.01" opacity="0.22"/>
<rect x="98.05" y="452.5" width="46.11" height="5.92" fill="#ccc"/>
<path d="M156.55,453.31H71.32a11.87,11.87,0,0,1-11.39-8.51L39.6,376.13a9.91,9.91,0,0,1,9.5-12.72h47l57.16,37.75h44.45a7.31,7.31,0,0,1,7.09,9.06l-8,32.09Z" fill="#ccc"/>
<path d="M85.67,401.57h45.62l11.82,40.33s3.31,8.71,17.79,6.25a1.69,1.69,0,0,1,1.54,2.82c-.85.83-2.59,1.68-5.89,2.34H71.32Z" fill="#ccc"/>
<path d="M85.67,401.57h45.62l11.82,40.33s3.31,8.71,17.79,6.25a1.69,1.69,0,0,1,1.54,2.82c-.85.83-2.59,1.68-5.89,2.34H71.32Z" opacity="0.22"/>
<g opacity="0.22">
<path d="M62.88,422.09l-1.27-.49,4.23-10.92a14.34,14.34,0,0,1,13.29-9.11h6.54l-.38,1.36H79.13a13,13,0,0,0-12,8.24Z"/>
</g>
<path d="M131.52,482l25-28.69s8-.92,5.6-4.89c0,0-14.44,2.87-19-6.52l-9-30.53H142l42.33,16.73a14.63,14.63,0,0,1,8.06,7.51c1.78,4,2.15,9.57-3.53,16.11l-42.79,41.92Z" fill="#292929" data-secondary="true"/>
<path d="M178.67,487.23l-16.13-9.72,26.32-25.79s7.64-7.2,3.53-16.11a14.5,14.5,0,0,0-8.06-7.51L142,411.37h4.6a103.74,103.74,0,0,1,31.85,5l29.74,9.6a17.74,17.74,0,0,1,11,9.88,13.38,13.38,0,0,1,.8,8.43,13.53,13.53,0,0,1-3.79,6.45Z" fill="#292929" data-secondary="true"/>
<path d="M178.67,487.23l-16.13-9.72,26.32-25.79s7.64-7.2,3.53-16.11a14.5,14.5,0,0,0-8.06-7.51L142,411.37h4.6a103.74,103.74,0,0,1,31.85,5l29.74,9.6a17.74,17.74,0,0,1,11,9.88,13.38,13.38,0,0,1,.8,8.43,13.53,13.53,0,0,1-3.79,6.45Z" opacity="0.2"/>
<polygon points="131.52 482 125.7 487.23 140.54 495.97 144.16 492.1 131.52 482" fill="#f9b499"/>
<path d="M112.84,502.27l12.86-15L140.54,496l4.17,7.8a41.27,41.27,0,0,0,14.4,15.51l2.22,1.41a4.73,4.73,0,0,1,2.09,5h0a4.72,4.72,0,0,1-5,3.7l-5.56-.48a29.3,29.3,0,0,1-13.54-4.66l-25.73-16.8A3.48,3.48,0,0,1,112.84,502.27Z" fill="#3f3d56"/>
<path d="M112.84,502.27l12.86-15L140.54,496l4.17,7.8a41.27,41.27,0,0,0,14.4,15.51l2.22,1.41a4.73,4.73,0,0,1,2.09,5h0a4.72,4.72,0,0,1-5,3.7l-5.56-.48a29.3,29.3,0,0,1-13.54-4.66l-25.73-16.8A3.48,3.48,0,0,1,112.84,502.27Z" fill="#5f25f4" data-primary="true"/>
<path d="M156.54,523.67h-.27a32.1,32.1,0,0,1-17.19-5.79l-20.56-14.35.39-.56,20.56,14.35A31.34,31.34,0,0,0,156.29,523h.27Z" fill="#ccc"/>
<polygon points="175.25 485.17 171.98 488.98 162.54 477.51 175.25 485.17" fill="#f9b499"/>
<path d="M165,518.38l-22.27-24.74,1.44-1.54,1.91,1.54,16.47-16.13L172,489l2.12,11.53a22.68,22.68,0,0,0,5.37,10.95l4.41,4.94a5.25,5.25,0,0,1-1.08,7.92h0a5.21,5.21,0,0,1-3.71.76C175.71,524.5,169,522.83,165,518.38Z" fill="#3f3d56"/>
<path d="M165,518.38l-22.27-24.74,1.44-1.54,1.91,1.54,16.47-16.13L172,489l2.12,11.53a22.68,22.68,0,0,0,5.37,10.95l4.41,4.94a5.25,5.25,0,0,1-1.08,7.92h0a5.21,5.21,0,0,1-3.71.76C175.71,524.5,169,522.83,165,518.38Z" fill="#5f25f4" data-primary="true"/>
<path d="M63,520.45l-.33-1.32,38.79-9.77c.51-.15,1-.32,1.55-.49l.62-.21c2.11-.68,8.55-2.77,16.53,11l-1.18.68c-7.43-12.84-13.07-11-14.93-10.4l-.61.2-1.62.51Z" fill="#ccc"/>
<circle cx="62.83" cy="528.95" r="10.38" fill="#ccc"/>
<circle cx="121.62" cy="528.95" r="10.38" fill="#ccc"/>
<path d="M166.16,338.5c.29,35.8-9.32,49.77-9.32,49.77-5,25-9.89,23.1-9.89,23.1H134.16l-2.87-9.8H87l13.09-60.45c7.86-29.11,31.44-37.84,31.44-37.84s31.14,37.94,36.77,16.2l16.06,40.79a5,5,0,0,0,2.94,2.87l27.18,11-13.11,6.47s-4.74-4.46-14.63-5.63l-17.39-.39.31-4.36-6.73-.46Z" fill="#5f25f4" data-primary="true"/>
<path d="M131.52,303.28c2.71-.82,8,22.47,8.48,25.48a35.15,35.15,0,0,1,.24,9.5l-2.61,25.15c3.79-.7,6.11,5.07,6.11,5.07l25.91,1.75c.29,7.85-5,16.29-5,16.29H132.51a12.46,12.46,0,0,1-11.77-8.35L102.09,335S111.34,309.39,131.52,303.28Z" fill="#5f25f4" data-primary="true"/>
<path d="M131.52,303.28c2.71-.82,8,22.47,8.48,25.48a35.15,35.15,0,0,1,.24,9.5l-2.61,25.15c3.79-.7,6.11,5.07,6.11,5.07l25.91,1.75c.29,7.85-5,16.29-5,16.29H132.51a12.46,12.46,0,0,1-11.77-8.35L102.09,335S111.34,309.39,131.52,303.28Z" opacity="0.1"/>
<path d="M169.44,373.81h15.32a26.76,26.76,0,0,1,8.69,1.44c4.2,1.45,9.23,4,7.83,7.49H176.05v4.66l-11.35-.88S169.22,377.4,169.44,373.81Z" fill="#f9b499"/>
<path d="M228.15,382.74s-8.14-10.32-16-8.36-10.79,6.23-10.79,6.23l-.08,2.13Z" fill="#f9b499"/>
<path d="M135.34,307.64l3.07-7.76,13.29-10s-4.76,25.62,16.49,23l.1,6.54s-1,10.35-12.22,5.37C156.07,324.85,150,323.36,135.34,307.64Z" fill="#f9b499"/>
<path d="M300.34,293.67l5.6-9.68c.23-.38.49-.74.76-1.1,3.11-4.09,3.53-10.17,3.53-10.17-1.45-4.66,2.33-3.41,2.33-3.41l15.14,11c7,3.49,7.86,15.71,7.86,15.71v72.48L303,371.88A11.57,11.57,0,0,1,291.61,365c-4.08,5.24-18.38,8-18.38,8-10.19,2.33-11.89-6.27-11.89-6.27-4.71,10.87-12.52,9.32-12.52,9.32l11.93-32.31h-16.3c-5.24-.88-2.91-9.9-2.91-9.9,1.17-8.15,4.66-7.63,4.66-7.63s-1.16-63.1,38.71-56.4C284.91,269.81,293.06,272.72,300.34,293.67Z" fill="#5f25f4" data-primary="true"/>
<path d="M283.4,269.86l-3.44,18,11.94-4.07,7.86,13.39,11.93-11.45,8.73,4.18-3.78-10.84-4.08-9.75s-3.49-1-2.33,3.41c0,0-.8,7.13-3.75,10.47l-6.14,10.48s-6.24-19.55-15.68-24Z" fill="#fff" opacity="0.2"/>
<path d="M310.35,273.54c-.88-4.27,1.75-3.93,1.75-3.93l17,12.25c4.64,3.27,5.4,10.79,5.4,10.79,1,0,3.08-3.14,3.08-3.14.39-18.63-11.06-34.93-11.06-34.93.47-.52.92-1.08,1.34-1.65,9.48-12.8,2.16-31.22-13.41-34.55a68.1,68.1,0,0,0-11.22-1.44c-12.8-2.52-23.77,13.77-23.77,13.77-10.38,16.5,4.18,31.83,4.18,31.83-8.54-.78-15.25,9.11-15.25,9.11s8.05-3.14,14.56-1.76a16.66,16.66,0,0,0,13.21-8.51,17.85,17.85,0,0,0,1.94-11.61,26.87,26.87,0,0,1-.3-7.55s7.41,4.74,14-14.1c0,0-6.47-5.75-21.61-3.28" fill="#3f3d56"/>
<path d="M310.35,273.54c-.88-4.27,1.75-3.93,1.75-3.93l17,12.25c4.64,3.27,5.4,10.79,5.4,10.79,1,0,3.08-3.14,3.08-3.14.39-18.63-11.06-34.93-11.06-34.93.47-.52.92-1.08,1.34-1.65,9.48-12.8,2.16-31.22-13.41-34.55a68.1,68.1,0,0,0-11.22-1.44c-12.8-2.52-23.77,13.77-23.77,13.77-10.38,16.5,4.18,31.83,4.18,31.83-8.54-.78-15.25,9.11-15.25,9.11s8.05-3.14,14.56-1.76a16.66,16.66,0,0,0,13.21-8.51,17.85,17.85,0,0,0,1.94-11.61,26.87,26.87,0,0,1-.3-7.55s7.41,4.74,14-14.1c0,0-6.47-5.75-21.61-3.28" opacity="0.1"/>
<path d="M244.45,343.74l-6.3,30.39s-15.82,2.79-15.24,8.61h19.28a6.52,6.52,0,0,0,6.14-4.32l12.42-34.68Z" fill="#f9b499"/>
<path d="M232.81,539.34l-9.27-28.93a6.6,6.6,0,0,1,1.58-6.62l20.21-20.54L260.75,496,243.39,508.4a8,8,0,0,0-3.33,7l1.48,24.48Z" fill="#5f25f4" data-primary="true"/>
<path d="M241,487.23l.51,52.64h10.77l30.86-135.3-5.34,36.6a14.67,14.67,0,0,1-3.31,7.36l-29.19,34.72L260.75,496l34.64-27.36c13.1-7.86,13.68-19.31,13.68-19.31l8.16-79.49-8.73.64c-14.26,2.26-16.89-5.46-16.89-5.46-5.53,6.11-19.37,7.48-19.37,7.48-8.57,1.85-10.9-5.74-10.9-5.74-4.81,10-12.52,9.32-12.52,9.32l-2.13,2.39L241,487.23" fill="#292929" data-secondary="true"/>
<path d="M370.51,441.72l-17.9-67.27a7.52,7.52,0,0,1,7.27-9.46H424a13.64,13.64,0,0,1,13,9.5l18.85,59.21,7.29-22.33s2.19-8.46,10.94-8h35a7.16,7.16,0,0,1,3.65,8L504,445s-2.56,7.66-17.14,5.84l-104.64.28S373.09,450.62,370.51,441.72Z" fill="#ccc"/>
<path d="M370.51,441.72l-17.9-67.27a7.52,7.52,0,0,1,7.27-9.46H424a13.64,13.64,0,0,1,13,9.5l18.85,59.21,7.29-22.33s2.19-8.46,10.94-8H506a6.82,6.82,0,0,1,6.76,7.88l0,.17L504,445s-2.56,7.66-17.14,5.84l-104.64.28S373.09,450.62,370.51,441.72Z" opacity="0.22"/>
<path d="M461.26,435.61l-.66-.17c.34-1.32,8.21-31.4,15.63-32.06l.79.31C469.39,403.69,461.34,435.29,461.26,435.61Z" fill="#ccc"/>
<path d="M532.4,428.14s-4.74-21.52-10.58-25H509.06s4.82,3.45,3.65,7.86l-8,29.91a11.62,11.62,0,0,1-9.19,8.48l-.7.11a16.13,16.13,0,0,0-4,1.62l119.45-.07a7.34,7.34,0,0,0,7.05-5.13L631.1,401a5.17,5.17,0,0,0-5.26-6.61l-82.27,3.39S537.13,425.9,532.4,428.14Z" fill="#ccc"/>
<path d="M532.4,428.14s-4.74-21.52-10.58-25H509.06s4.82,3.45,3.65,7.86l-8,29.91a11.62,11.62,0,0,1-9.19,8.48l-.7.11a16.13,16.13,0,0,0-4,1.62l119.45-.07a7.34,7.34,0,0,0,7.05-5.13l13.86-45.18a5,5,0,0,0-5.06-6.35l-82.56,3.4S537.13,425.9,532.4,428.14Z" opacity="0.22"/>
<path d="M447.82,539.44,436.7,469.78a12.75,12.75,0,0,0-11.92-10.68L395,457.61A12.63,12.63,0,0,0,382.83,465L349,537.88l-1.23-.58,33.84-72.92a14,14,0,0,1,13.47-8.13l29.79,1.49A14.13,14.13,0,0,1,438,469.57l11.12,69.66Z" fill="#ccc"/>
<path d="M403.7,539.63l-1.23-.59,36.29-76.3a10.91,10.91,0,0,1,10.32-6.24l33.43,1.3a11,11,0,0,1,10.38,9.13l12.16,72.29-1.34.23-12.16-72.29a9.64,9.64,0,0,0-9.09-8L449,457.85a9.6,9.6,0,0,0-9,5.47Z" fill="#ccc"/>
<path d="M572.07,539.62l-34.16-73.47a13.69,13.69,0,0,0-11.48-7.59l-16.26,0a13.58,13.58,0,0,0-14.34,11.73L486,539.43l-1.34-.19,9.79-69.11a14.94,14.94,0,0,1,15.73-12.9l16.25,0a15.07,15.07,0,0,1,12.68,8.35l34.16,73.49Z" fill="#ccc"/>
<polygon points="676.82 542.67 609.94 453.11 557.24 453.18 524.22 542.15 532.03 452.44 533.38 452.56 526.45 532.25 556.3 451.82 610.62 451.75 670.35 531.73 622.77 427.23 624.01 426.66 676.82 542.67" fill="#ccc"/>
<path d="M640.76,539.63l-36-76.25a8.46,8.46,0,0,0-7.61-4.82H575a10.24,10.24,0,0,0-10.12,8.58l-11.67,70.17-1.34-.22,11.68-70.18a11.57,11.57,0,0,1,11.45-9.7h22.23A9.79,9.79,0,0,1,606,462.8l36,76.25Z" fill="#ccc"/>
<ellipse cx="758.58" cy="244.33" rx="15.33" ry="23.42" fill="#f9b499"/>
<path d="M799.71,390.31c5.44-27.17-13.77-56.27-13.77-56.27l7-21.16,3.69,6.8-7.18,11.64,11.06,15.33,10.87,4.85,16.68-20-15.13-40.75-59.57-20.39a28.91,28.91,0,0,0-17.63,0c-3.42-.25-23.12,30.68-23.12,30.68v-3.69H700.17l-4.27,21.73,15.33,17.08,11.64-.58s-7.18,43.27-4.46,54.72Z" fill="#5f25f4" data-primary="true"/>
<path d="M809.61,288.43s-10.32-18.55-22-14.44l-13.69-10.2v-16.1l-18.45,20.05-8.92,1.1,63.06,20.79Z" fill="#f9b499"/>
<path d="M740.3,335.31l-11.41,35.94a1.87,1.87,0,0,0,2.11,2.4l29.44-5.35a4.67,4.67,0,0,0,3.6-3.14l11-33.65a2.56,2.56,0,0,0-2.89-3.31l-29.88,5.37A2.55,2.55,0,0,0,740.3,335.31Z" fill="#fff"/>
<path d="M720.64,390.31s-.29,14.84,1.75,20.66c0,0,12.51,61.71,37,80.92l4.08,14.55h18.34V451.72s16.1-43.07,17.94-61.41Z" fill="#292929" data-secondary="true"/>
<g opacity="0.2">
<path d="M759,492l-10.94-40.37a15.92,15.92,0,0,1-.52-3.21l-2.82-47.59.68,0,2.82,47.59a15.13,15.13,0,0,0,.5,3.07l10.93,40.37Z" fill="#fff"/>
</g>
<path d="M766.34,516.05l-2.91-9.61h18.34s6.11,6.7,3.49,21.25l-1.17,9.51H739.27s-2.33-6.6,5.82-6.6h0A19.62,19.62,0,0,0,757.31,525Z" fill="#5f25f4" data-primary="true"/>
<path d="M785.91,518.67l2.5,1.09a6.87,6.87,0,0,0,8-1.86h0a6.87,6.87,0,0,0,.47-8.25c-3.66-5.49-10.18-14.59-15.13-17.76v14.55S784.82,510.81,785.91,518.67Z" fill="#5f25f4" data-primary="true"/>
<path d="M785.91,518.67l2.5,1.09a6.87,6.87,0,0,0,8-1.86h0a6.87,6.87,0,0,0,.47-8.25c-3.66-5.49-10.18-14.59-15.13-17.76v14.55S784.82,510.81,785.91,518.67Z" opacity="0.1"/>
<polygon points="486.6 247.86 486.6 254.66 481.55 273.45 506.8 273.45 511.17 254.66 511.17 247.86 486.6 247.86" fill="#fff" stroke="#2f2e41" stroke-miterlimit="10"/>
<rect x="532.38" y="208.47" width="25.25" height="24.91" fill="#fff" stroke="#2f2e41" stroke-miterlimit="10"/>
<polygon points="533.06 249.22 532.38 265.7 538.11 273.45 555.41 274.85 557.63 250.79 533.06 249.22" fill="#fff" stroke="#3f3d56" stroke-miterlimit="10"/>
<polygon points="539.51 266.9 532.38 265.7 538.11 273.45 539.51 266.9" fill="#3f3d56"/>
<path d="M567.83,249.22s-1.94,22.53-2.72,27h30.27s.39-22.55-1-28.35Z" fill="#292929" data-secondary="true"/>
<polygon points="545.01 283.2 543.96 309.97 571.13 309.97 571.9 283.2 545.01 283.2" fill="#292929" data-secondary="true"/>
<polygon points="546.87 285.52 546.87 307.64 568.61 307.64 569.28 286.2 546.87 285.52" fill="#fff"/>
<polygon points="462.73 317.76 448.13 327.56 436.2 327.56 433.3 301.11 460.65 299.95 462.73 317.76" fill="#292929" data-secondary="true"/>
<polygon points="451.05 318 446.68 327.56 448.13 327.56 462.73 317.76 451.05 318" opacity="0.2"/>
<polygon points="593.2 224.94 578.6 234.73 566.67 234.73 563.76 208.28 591.12 207.12 593.2 224.94" fill="#292929" data-secondary="true"/>
<polygon points="581.51 225.17 577.14 234.73 578.6 234.73 593.2 224.94 581.51 225.17" opacity="0.2"/>
<rect x="601.4" y="218.9" width="128.85" height="1.36" fill="#292929" data-secondary="true"/>
<rect x="621.44" y="219.58" width="1.36" height="70.06" fill="#292929" data-secondary="true"/>
<rect x="681.33" y="219.63" width="1.36" height="124.1" fill="#292929" data-secondary="true"/>
<polygon points="639.04 230.22 637.69 247.69 651.66 256.42 662.23 256.42 663.69 232.03 639.04 230.22" fill="#fff" stroke="#2f2e41" stroke-miterlimit="10"/>
<polygon points="637.69 247.69 648.75 247.69 651.66 256.42 637.69 247.69" fill="#292929" data-secondary="true"/>
<rect x="604.5" y="257.87" width="22.51" height="1.36" fill="#292929" data-secondary="true"/>
<path d="M442,338.6c-1.22,0-2.42-.05-3.62-.15-9.58-.8-21.29-4.81-22.65-19.34A29.32,29.32,0,0,1,423,297.29c.53-.61,1.08-1.23,1.67-1.86-3.91,2.23-6.35,4-6.42,4l-.8-1.1A88.82,88.82,0,0,1,428,292c5.88-5.59,13.65-11.08,22.69-12.85l.26,1.33c-7.06,1.39-13.36,5.15-18.54,9.42,7.61-3.36,17.13-6.21,26.2-5.1A24.92,24.92,0,0,1,479.78,315c-2.08,9-8.87,15.77-20.19,20.19A48.53,48.53,0,0,1,442,338.6Zm-13.34-45.34c-1.73,1.67-3.3,3.34-4.67,4.92A28,28,0,0,0,417.09,319c1.28,13.59,12.35,17.35,21.41,18.11A46.52,46.52,0,0,0,459.09,334c10.88-4.26,17.39-10.73,19.36-19.24a23.56,23.56,0,0,0-20-28.54C448,284.9,436.64,289.21,428.67,293.26Z" fill="#292929" data-secondary="true"/>
<path d="M695.9,319.09l-37.16-26.64a35.36,35.36,0,0,1-11-12.86l-2.14-4.27a5.29,5.29,0,0,1,.8-5.91h0a5.29,5.29,0,0,1,8.14.35,26.52,26.52,0,0,0,4.74,5,2.47,2.47,0,0,0,3.87-2.35c-.25-2.2.1-5,3.68-4.7a.6.6,0,0,1,.48.35l3.41,7.43a4.25,4.25,0,0,1,.38,1.54l.53,8.5,27.88,15.13Z" fill="#f9b499"/>
<rect x="654.69" y="277" width="8.13" height="0.68" transform="translate(-31.93 461.26) rotate(-37.74)" fill="#d1d3d4"/>
<rect x="666.75" y="286.37" width="5.6" height="0.68" transform="translate(-57.5 243.04) rotate(-19.74)" fill="#d1d3d4"/>
<path d="M676.52,310.61h-.22a4.28,4.28,0,0,1-3.9-3c-3-8.87,6.57-17.79,7-18.17l.92,1c-.09.09-9.29,8.7-6.61,16.75a2.9,2.9,0,0,0,2.68,2,2.84,2.84,0,0,0,2.79-1.72l.06-.14,1.25.53-.07.16A4.17,4.17,0,0,1,676.52,310.61Z" fill="#5f25f4" data-primary="true"/>
<path d="M179.61,520l-.26-.07c-5.77-1.47-8.11-3.8-11.65-7.33l-.46-.45-17.08-18.38.49-.46,17.08,18.36.45.45c3.58,3.57,5.74,5.73,11.33,7.15l.26.07Z" fill="#ccc"/>
<ellipse cx="310.91" cy="245.74" rx="12.61" ry="18.05" fill="#f9b499"/>
<ellipse cx="297.31" cy="247.2" rx="4.24" ry="5.43" fill="#f9b499"/>
<path d="M301.56,377.6H256.63a3.74,3.74,0,0,0-3.74,3.73v1.41h47.3Z" fill="#3f3d56"/>
<path d="M301.56,377.6H256.63a3.74,3.74,0,0,0-3.74,3.73v1.41h47.3Z" opacity="0.3"/>
<path d="M375.53,382.64l12.26-49.52a5.57,5.57,0,0,0-5.4-6.91H320.23a6.82,6.82,0,0,0-6.59,5.07l-13.45,51.46Z" fill="#3f3d56"/>
<path d="M375.53,382.64l12.26-49.52a5.57,5.57,0,0,0-5.4-6.91H320.23a6.82,6.82,0,0,0-6.59,5.07l-13.45,51.46Z" opacity="0.3"/>
<path d="M305.4,382.74l12.69-50.35s1.27-6.18,5.44-6.18h58.86s6.9.85,5.4,6.91l-12.26,49.52Z" fill="#3f3d56"/>
<path d="M305.4,382.74l12.69-50.35s1.27-6.18,5.44-6.18h58.86s6.9.85,5.4,6.91l-12.26,49.52Z" opacity="0.2"/>
<rect x="176.05" y="382.74" width="499.47" height="7.57" fill="#292929" data-secondary="true"/>
<rect x="176.05" y="382.74" width="499.47" height="7.57" fill="#fff" opacity="0.2"/>
<rect x="221.17" y="390.31" width="409.24" height="7.57" fill="#292929" data-secondary="true"/>
<rect x="221.17" y="390.31" width="409.24" height="7.57" opacity="0.2"/>
<path d="M570.16,251.37l-2.33,22.08h21.54s3.3-15.87,2.91-23.44Z" fill="#fff"/>
<path d="M553.1,382.67l-13.44-50.56a4.72,4.72,0,0,1,4.58-5.9h63.49a4.72,4.72,0,0,1,4.6,3.66l12.57,52.8Z" fill="#292929" data-secondary="true"/>
<path d="M622.8,375.44h35.92a3.62,3.62,0,0,1,3.61,3.62h0a3.61,3.61,0,0,1-3.68,3.61H624.9Z" fill="#292929" data-secondary="true"/>
<path d="M743.25,244.33s.06-5.68,1.16-9c0,0,18.58-5,21.76-11.39,0,0,7.77,7.4,7.75,18.47v9.22c.27,5.31-2.47,11.15-2.47,11.15-9.88,18.11,3.73,27.16,3.73,27.16a34.63,34.63,0,0,1,6.5-12.32,11,11,0,0,1,13.5-2.71c5.49,2.87,10.15,8.45,12.08,11a1.31,1.31,0,0,0,2,.06h0a1.32,1.32,0,0,0,.11-1.56,25.27,25.27,0,0,0-4.48-4.59,19.54,19.54,0,0,0,.36-7.45A42.49,42.49,0,0,0,800,256l-17.53-31.07a14.78,14.78,0,0,0-11.8-8.51C764,211.49,759.37,214,759.37,214l-19.48,10.15C715.74,239.21,728,265,728,265l2.79-1.1c-6.59-16.19.56-26.34.56-26.34-2.74,6.31,5.49,14.54,5.49,14.54a16.55,16.55,0,0,0,0,20h0a20.18,20.18,0,0,1,8.89-3.27l10.75-1.19s-13.26-5.82-13.26-23.34" fill="#292929" data-secondary="true"/>
<circle cx="776.44" cy="245.52" r="3.98" fill="#f9b499"/>
<path d="M769,348.43l-.74,3.07s-14.36.39-14.17,7.18c0,0,13.8,9.31,21.07,3.3,0,0,19.3-13.59,26.28-17.47,0,0-2-12.68-8.54-12.22l-17.74,14-2.92-.2A3.1,3.1,0,0,0,769,348.43Z" fill="#f9b499"/>
<path d="M168.29,316.74l-.1-3.8s-12.34,3-16.37-10.48C151.82,302.46,153.67,317.45,168.29,316.74Z" fill="#f4a48e"/>
<ellipse cx="166.5" cy="291.78" rx="22.34" ry="15.09" transform="translate(-155.13 388.83) rotate(-77.08)" fill="#f9b499"/>
<path d="M138.41,299.88l-5.24-13s-3.69-15.72,11.84-25c0,0,14.74-6.6,22.89-1.94l8.73,11.25Z" fill="#5f25f4" data-primary="true"/>
<path d="M191.53,262.47h0a1.84,1.84,0,0,1-.37,2.65l-35.09,25.26a4.72,4.72,0,0,0-1.2-2.86L189,262.14A1.86,1.86,0,0,1,191.53,262.47Z" fill="#292929" data-secondary="true"/>
<ellipse cx="151.7" cy="291.44" rx="4.37" ry="5.72" fill="#f9b499"/>
</svg>