<svg width="664" height="664" viewBox="0 0 664 664" fill="none" xmlns="http://www.w3.org/2000/svg">
<g filter="url(#filter0_f_0_1)">
<circle cx="332" cy="332" r="232" fill="url(#paint0_linear_0_1)" fill-opacity="0.56"/>
</g>
<g clip-path="url(#clip0_0_1)">
<mask id="mask0_0_1" style="mask-type:alpha" maskUnits="userSpaceOnUse" x="45" y="47" width="529" height="573">
<path d="M237.026 299.078L220.538 301.65L190.654 302.678L217.962 364.922L234.45 374.182L256.09 362.865L259.182 353.091L267.941 360.293L287.005 380.869L325.649 360.293L330.802 362.865L383.873 376.754H433.337H491.56L567.302 402.474L574 562.457L181.894 619.557L45.353 495.583V250.723L282.368 47.0155L574 134.98L567.302 299.078L495.167 290.333L426.638 294.448L410.15 295.477L397.784 276.958H373.052V295.477L336.47 302.678L325.649 308.851L292.673 294.448L282.368 297.02L261.758 294.448L247.846 298.563L240.633 320.168L237.026 299.078Z" fill="#D9D9D9"/>
</mask>
<g mask="url(#mask0_0_1)">
<path d="M170.077 404.084C207.373 404.084 237.607 373.898 237.607 336.663C237.607 299.427 207.373 269.242 170.077 269.242C132.78 269.242 102.546 299.427 102.546 336.663C102.546 373.898 132.78 404.084 170.077 404.084Z" stroke="white" stroke-width="3"/>
<path d="M183.234 416.981C227.797 416.981 263.922 380.914 263.922 336.424C263.922 291.934 227.797 255.867 183.234 255.867C138.671 255.867 102.546 291.934 102.546 336.424C102.546 380.914 138.671 416.981 183.234 416.981Z" stroke="white" stroke-width="3"/>
<path d="M198.482 426.851C251.466 426.851 294.418 383.969 294.418 331.071C294.418 278.173 251.466 235.291 198.482 235.291C145.498 235.291 102.546 278.173 102.546 331.071C102.546 383.969 145.498 426.851 198.482 426.851Z" stroke="white" stroke-width="3"/>
<path d="M217.05 445.407C280.289 445.407 331.554 394.225 331.554 331.089C331.554 267.953 280.289 216.772 217.05 216.772C153.811 216.772 102.546 267.953 102.546 331.089C102.546 394.225 153.811 445.407 217.05 445.407Z" stroke="white" stroke-width="3"/>
<path d="M239.153 473.081C314.599 473.081 375.76 412.019 375.76 336.696C375.76 261.372 314.599 200.31 239.153 200.31C163.707 200.31 102.546 261.372 102.546 336.696C102.546 412.019 163.707 473.081 239.153 473.081Z" stroke="white" stroke-width="3"/>
<path d="M264.771 493.369C354.366 493.369 426.997 420.856 426.997 331.407C426.997 241.958 354.366 169.446 264.771 169.446C175.177 169.446 102.546 241.958 102.546 331.407C102.546 420.856 175.177 493.369 264.771 493.369Z" stroke="white" stroke-width="3"/>
<path d="M295.964 524.787C402.785 524.787 489.381 438.332 489.381 331.684C489.381 225.036 402.785 138.581 295.964 138.581C189.142 138.581 102.546 225.036 102.546 331.684C102.546 438.332 189.142 524.787 295.964 524.787Z" stroke="white" stroke-width="3"/>
<path d="M333.099 561.899C460.43 561.899 563.652 458.845 563.652 331.721C563.652 204.597 460.43 101.543 333.099 101.543C205.768 101.543 102.546 204.597 102.546 331.721C102.546 458.845 205.768 561.899 333.099 561.899Z" stroke="white" stroke-width="3"/>
</g>
<path d="M233.017 363.379L210.233 306.794H221.909L238.572 349.007L255.348 306.794H267.024L244.126 363.379H233.017ZM274.812 355.797C269.22 350.138 266.423 343.273 266.423 335.2C266.423 327.126 269.182 320.223 274.698 314.489C280.291 308.756 287.13 305.888 295.215 305.888C302.924 305.888 309.65 308.491 315.393 313.697C321.137 318.828 324.159 325.618 324.461 334.068C324.461 335.954 324.348 337.651 324.121 339.161H278.326C278.779 343.386 280.556 346.856 283.653 349.572C286.827 352.213 290.681 353.533 295.215 353.533C300.808 353.533 305.342 351.647 308.818 347.875L322.081 347.988C319.587 352.892 315.959 356.853 311.199 359.871C306.438 362.813 301.223 364.285 295.556 364.285C287.394 364.285 280.479 361.455 274.812 355.797ZM278.326 330.107H312.559C311.501 326.184 309.385 322.977 306.211 320.487C303.113 317.923 299.561 316.64 295.556 316.64C291.248 316.64 287.545 317.885 284.447 320.374C281.424 322.864 279.384 326.108 278.326 330.107ZM388.453 335.087C388.453 343.16 385.619 350.063 379.952 355.797C374.284 361.455 367.407 364.285 359.321 364.285C351.235 364.285 344.32 361.455 338.577 355.797C332.909 350.063 330.075 343.16 330.075 335.087C330.075 327.013 332.909 320.148 338.577 314.489C344.32 308.756 351.235 305.888 359.321 305.888C366.651 305.888 372.622 308.605 377.231 314.037V284.16H388.453V335.087ZM359.321 316.64C354.182 316.64 349.874 318.412 346.398 321.959C342.922 325.505 341.184 329.881 341.184 335.087C341.184 340.292 342.884 344.668 346.285 348.214C349.761 351.761 354.107 353.533 359.321 353.533C364.46 353.533 368.767 351.761 372.243 348.214C375.719 344.668 377.458 340.292 377.458 335.087C377.458 329.956 375.682 325.618 372.13 322.072C368.654 318.45 364.384 316.64 359.321 316.64ZM403.111 355.797C397.519 350.138 394.723 343.273 394.723 335.2C394.723 327.126 397.481 320.223 402.998 314.489C408.59 308.756 415.43 305.888 423.515 305.888C431.223 305.888 437.949 308.491 443.692 313.697C449.436 318.828 452.459 325.618 452.761 334.068C452.761 335.954 452.647 337.651 452.42 339.161H406.625C407.078 343.386 408.855 346.856 411.953 349.572C415.127 352.213 418.981 353.533 423.515 353.533C429.107 353.533 433.642 351.647 437.118 347.875L450.38 347.988C447.886 352.892 444.259 356.853 439.498 359.871C434.737 362.813 429.523 364.285 423.855 364.285C415.693 364.285 408.779 361.455 403.111 355.797ZM406.625 330.107H440.858C439.801 326.184 437.684 322.977 434.51 320.487C431.413 317.923 427.861 316.64 423.855 316.64C419.547 316.64 415.845 317.885 412.746 320.374C409.724 322.864 407.683 326.108 406.625 330.107ZM508.818 363.379V333.615C508.818 324.41 506.551 317.507 502.016 312.905C497.482 308.227 491.436 305.888 483.88 305.888C476.323 305.888 470.277 308.227 465.743 312.905C461.209 317.507 458.941 324.41 458.941 333.615V363.379H470.05V333.615C470.05 322.298 474.66 316.64 483.88 316.64C493.099 316.64 497.709 322.298 497.709 333.615V363.379H508.818ZM544.298 386.013C538.403 386.013 533.038 384.391 528.201 381.147C523.365 377.978 519.813 373.753 517.546 368.472H530.922C534.474 372.999 538.932 375.262 544.298 375.262C549.286 375.262 553.518 373.791 556.994 370.848C560.47 367.906 562.208 364.096 562.208 359.418V356.815C557.372 361.795 551.401 364.285 544.298 364.285C536.212 364.285 529.297 361.455 523.554 355.797C517.886 350.063 515.052 343.16 515.052 335.087C515.052 327.013 517.886 320.148 523.554 314.489C529.297 308.756 536.212 305.888 544.298 305.888C552.384 305.888 559.261 308.756 564.929 314.489C570.671 320.148 573.544 327.013 573.544 335.087V356.815C573.544 364.888 570.671 371.754 564.929 377.412C559.261 383.146 552.384 386.013 544.298 386.013ZM531.375 348.214C534.928 351.761 539.272 353.533 544.411 353.533C549.55 353.533 553.82 351.761 557.22 348.214C560.696 344.668 562.435 340.292 562.435 335.087C562.435 329.881 560.696 325.505 557.22 321.959C553.82 318.412 549.55 316.64 544.411 316.64C539.197 316.64 534.851 318.412 531.375 321.959C527.9 325.505 526.161 329.881 526.161 335.087C526.161 340.217 527.9 344.593 531.375 348.214Z" fill="white"/>
</g>
<defs>
<filter id="filter0_f_0_1" x="0" y="0" width="664" height="664" filterUnits="userSpaceOnUse" color-interpolation-filters="sRGB">
<feFlood flood-opacity="0" result="BackgroundImageFix"/>
<feBlend mode="normal" in="SourceGraphic" in2="BackgroundImageFix" result="shape"/>
<feGaussianBlur stdDeviation="50" result="effect1_foregroundBlur_0_1"/>
</filter>
<linearGradient id="paint0_linear_0_1" x1="560" y1="320.5" x2="223.5" y2="547" gradientUnits="userSpaceOnUse">
<stop/>
<stop offset="1" stop-color="#8F00FF"/>
</linearGradient>
<clipPath id="clip0_0_1">
<rect width="473" height="464" fill="white" transform="translate(101 100)"/>
</clipPath>
</defs>
</svg>
