<svg width="459" height="451" viewBox="0 0 459 451" fill="none" xmlns="http://www.w3.org/2000/svg">
<mask id="mask0_0_1" style="mask-type:alpha" maskUnits="userSpaceOnUse" x="-54" y="-52" width="513" height="557">
<path d="M132 193.5L116 196L87 197L113.5 257.5L129.5 266.5L150.5 255.5L153.5 246L162 253L180.5 273L218 253L223 255.5L274.5 269H322.5H379L452.5 294L459 449.5L78.5 505L-54 384.5V146.5L176 -51.5L459 34L452.5 193.5L382.5 185L316 189L300 190L288 172H264V190L228.5 197L218 203L186 189L176 191.5L156 189L142.5 193L135.5 214L132 193.5Z" fill="#D9D9D9"/>
</mask>
<g mask="url(#mask0_0_1)">
<circle cx="67.032" cy="230.032" r="65.532" stroke="white" stroke-width="3"/>
<circle cx="79.8" cy="229.8" r="78.3" stroke="white" stroke-width="3"/>
<circle cx="94.5966" cy="224.597" r="93.0966" stroke="white" stroke-width="3"/>
<circle cx="112.615" cy="224.615" r="111.115" stroke="white" stroke-width="3"/>
<circle cx="134.064" cy="230.064" r="132.564" stroke="white" stroke-width="3"/>
<circle cx="158.924" cy="224.924" r="157.424" stroke="white" stroke-width="3"/>
<circle cx="189.193" cy="225.193" r="187.693" stroke="white" stroke-width="3"/>
<circle cx="225.229" cy="225.229" r="223.729" stroke="white" stroke-width="3"/>
</g>
<path d="M128.11 256L106 201H117.33L133.5 242.03L149.78 201H161.11L138.89 256H128.11ZM168.667 248.63C163.241 243.13 160.527 236.457 160.527 228.61C160.527 220.763 163.204 214.053 168.557 208.48C173.984 202.907 180.621 200.12 188.467 200.12C195.947 200.12 202.474 202.65 208.047 207.71C213.621 212.697 216.554 219.297 216.847 227.51C216.847 229.343 216.737 230.993 216.517 232.46H172.077C172.517 236.567 174.241 239.94 177.247 242.58C180.327 245.147 184.067 246.43 188.467 246.43C193.894 246.43 198.294 244.597 201.667 240.93L214.537 241.04C212.117 245.807 208.597 249.657 203.977 252.59C199.357 255.45 194.297 256.88 188.797 256.88C180.877 256.88 174.167 254.13 168.667 248.63ZM172.077 223.66H205.297C204.271 219.847 202.217 216.73 199.137 214.31C196.131 211.817 192.684 210.57 188.797 210.57C184.617 210.57 181.024 211.78 178.017 214.2C175.084 216.62 173.104 219.773 172.077 223.66ZM278.945 228.5C278.945 236.347 276.195 243.057 270.695 248.63C265.195 254.13 258.522 256.88 250.675 256.88C242.828 256.88 236.118 254.13 230.545 248.63C225.045 243.057 222.295 236.347 222.295 228.5C222.295 220.653 225.045 213.98 230.545 208.48C236.118 202.907 242.828 200.12 250.675 200.12C257.788 200.12 263.582 202.76 268.055 208.04V179H278.945V228.5ZM250.675 210.57C245.688 210.57 241.508 212.293 238.135 215.74C234.762 219.187 233.075 223.44 233.075 228.5C233.075 233.56 234.725 237.813 238.025 241.26C241.398 244.707 245.615 246.43 250.675 246.43C255.662 246.43 259.842 244.707 263.215 241.26C266.588 237.813 268.275 233.56 268.275 228.5C268.275 223.513 266.552 219.297 263.105 215.85C259.732 212.33 255.588 210.57 250.675 210.57ZM293.169 248.63C287.743 243.13 285.029 236.457 285.029 228.61C285.029 220.763 287.706 214.053 293.059 208.48C298.486 202.907 305.123 200.12 312.969 200.12C320.449 200.12 326.976 202.65 332.549 207.71C338.123 212.697 341.056 219.297 341.349 227.51C341.349 229.343 341.239 230.993 341.019 232.46H296.579C297.019 236.567 298.743 239.94 301.749 242.58C304.829 245.147 308.569 246.43 312.969 246.43C318.396 246.43 322.796 244.597 326.169 240.93L339.039 241.04C336.619 245.807 333.099 249.657 328.479 252.59C323.859 255.45 318.799 256.88 313.299 256.88C305.379 256.88 298.669 254.13 293.169 248.63ZM296.579 223.66H329.799C328.773 219.847 326.719 216.73 323.639 214.31C320.633 211.817 317.186 210.57 313.299 210.57C309.119 210.57 305.526 211.78 302.519 214.2C299.586 216.62 297.606 219.773 296.579 223.66ZM395.747 256V227.07C395.747 218.123 393.547 211.413 389.147 206.94C384.747 202.393 378.88 200.12 371.547 200.12C364.214 200.12 358.347 202.393 353.947 206.94C349.547 211.413 347.347 218.123 347.347 227.07V256H358.127V227.07C358.127 216.07 362.6 210.57 371.547 210.57C380.494 210.57 384.967 216.07 384.967 227.07V256H395.747ZM430.177 278C424.457 278 419.25 276.423 414.557 273.27C409.864 270.19 406.417 266.083 404.217 260.95H417.197C420.644 265.35 424.97 267.55 430.177 267.55C435.017 267.55 439.124 266.12 442.497 263.26C445.87 260.4 447.557 256.697 447.557 252.15V249.62C442.864 254.46 437.07 256.88 430.177 256.88C422.33 256.88 415.62 254.13 410.047 248.63C404.547 243.057 401.797 236.347 401.797 228.5C401.797 220.653 404.547 213.98 410.047 208.48C415.62 202.907 422.33 200.12 430.177 200.12C438.024 200.12 444.697 202.907 450.197 208.48C455.77 213.98 458.557 220.653 458.557 228.5V249.62C458.557 257.467 455.77 264.14 450.197 269.64C444.697 275.213 438.024 278 430.177 278ZM417.637 241.26C421.084 244.707 425.3 246.43 430.287 246.43C435.274 246.43 439.417 244.707 442.717 241.26C446.09 237.813 447.777 233.56 447.777 228.5C447.777 223.44 446.09 219.187 442.717 215.74C439.417 212.293 435.274 210.57 430.287 210.57C425.227 210.57 421.01 212.293 417.637 215.74C414.264 219.187 412.577 223.44 412.577 228.5C412.577 233.487 414.264 237.74 417.637 241.26Z" fill="white"/>
</svg>
